<svg width="642" height="642" viewBox="0 0 642 642" fill="none" xmlns="http://www.w3.org/2000/svg">
<rect width="642" height="642" fill="white"/>
<path d="M508.474 456.603C432.285 393.119 286 274.783 286 218.409C286 196.57 301.238 179.302 320.54 179.302C336.794 179.302 350 196.57 350 218.409C350 243.803 308.349 275.291 295.143 287.988C248.921 330.142 231.144 360.614 231.144 398.705C231.144 446.446 280.921 485.044 342.381 486.06C451.078 484.537 537.935 396.674 537.935 288.496C537.935 180.318 442.951 90.4236 324.095 90.4236C198.128 90.4236 98.0657 188.444 98.0657 312.366C98.0657 445.43 204.223 551.576 337.809 551.576V525.167C223.525 525.167 132.605 431.209 132.605 312.366C132.605 203.172 217.43 116.833 324.095 116.833C424.158 116.833 503.395 193.015 503.395 288.496C503.395 383.977 431.777 458.127 342.381 459.651C299.207 458.635 265.683 431.717 265.683 398.705C265.683 365.693 279.905 342.839 318.508 307.287C333.746 293.067 384.539 254.468 384.539 218.409C384.539 182.349 356.603 152.893 320.54 152.893C281.937 152.893 251.461 181.842 251.461 218.409C251.461 284.941 406.888 410.894 486.125 476.918L508.474 456.603Z" fill="black"/>
</svg>
